<?xml version="1.0" encoding="UTF-8" standalone="no"?>
<svg width="1676px" height="746px" viewBox="0 0 1676 746" version="1.1" xmlns="http://www.w3.org/2000/svg" xmlns:xlink="http://www.w3.org/1999/xlink">
    <!-- Generator: Sketch 3.7.2 (28276) - http://www.bohemiancoding.com/sketch -->
    <title>logo_lockup_summer_of_code_vertical_Roboto</title>
    <desc>Created with Sketch.</desc>
    <defs></defs>
    <g id="Page-1" stroke="none" stroke-width="1" fill="none" fill-rule="evenodd">
        <g id="logo_lockup_summer_of_code_vertical_Roboto">
            <g id="Page-1">
                <g id="logo_lockup_summer_of_code_vertical_Roboto_2016_lockup_summer_of_code_vertical">
                    <g id="Group" transform="translate(540.000000, 0.000000)">
                        <polygon id="Shape" fill="#FBBC05" points="365.4 450.4 474.6 450.4 474.6 341.2 551.8 264 474.6 186.9 474.6 77.6 365.4 77.6 288.3 0.5 211.1 77.6 101.9 77.6 101.9 186.9 24.7 264 101.9 341.2 101.9 450.4 211.1 450.4 288.3 527.5"></polygon>
                        <path d="M288.3,95.6 C381.2,95.6 456.7,171.2 456.7,264 C456.7,356.8 381.1,432.4 288.3,432.4 C195.4,432.4 119.9,356.8 119.9,264 C119.9,171.2 195.4,95.6 288.3,95.6 M288.3,86.1 C190,86.1 110.3,165.8 110.3,264.1 C110.3,362.4 190,442.1 288.3,442.1 C386.6,442.1 466.3,362.4 466.3,264.1 C466.3,165.8 386.6,86.1 288.3,86.1" id="Shape" fill="#FFFFFF"></path>
                        <path d="M296.5,181.7 L296.3,182.8 L260.5,340.4 L259.2,346.4 L281.4,346.4 L281.6,345.3 L317.4,187.7 L318.7,181.7 L296.5,181.7 L296.5,181.7 L296.5,181.7 Z M239.9,203.2 L237,205.4 L172.5,255.6 L168.2,259 L168.2,269.3 L172.5,272.7 L237,322.9 L239.9,325.1 L239.9,298 L196.5,264.2 L239.9,230.4 L239.9,203.2 L239.9,203.2 L239.9,203.2 L239.9,203.2 Z M336.4,203.2 L336.4,230.3 L379.8,264.1 L336.4,297.9 L336.4,325 L339.3,322.8 L403.8,272.6 L408.1,269.2 L408.1,258.9 L403.8,255.5 L339.3,205.3 L336.4,203.2 L336.4,203.2 L336.4,203.2 L336.4,203.2 Z" id="Shape" fill="#FFFFFF"></path>
                        <circle id="Oval" stroke="#FFFFFF" stroke-width="24" cx="288.2" cy="264" r="176"></circle>
                        <rect id="Rectangle-path" x="0.2" y="1" width="576" height="527"></rect>
                    </g>
                    <g id="Group" transform="translate(431.000000, 622.000000)" fill="#757575">
                        <path d="M32.5,56 C22.4,53.1 15,49.5 10.4,45.3 C5.8,41.1 3.5,35.8 3.5,29.6 C3.5,22.5 6.3,16.7 12,12.1 C17.7,7.5 25,5.2 34,5.2 C40.2,5.2 45.6,6.4 50.5,8.8 C55.3,11.2 59.1,14.5 61.7,18.6 C64.3,22.8 65.7,27.4 65.7,32.3 L53.8,32.3 C53.8,26.9 52.1,22.6 48.6,19.5 C45.2,16.4 40.3,14.8 34,14.8 C28.2,14.8 23.6,16.1 20.4,18.7 C17.2,21.3 15.5,24.8 15.5,29.4 C15.5,33.1 17,36.2 20.1,38.7 C23.2,41.2 28.5,43.5 35.9,45.6 C43.3,47.7 49.2,50 53.4,52.5 C57.6,55 60.7,58 62.8,61.3 C64.8,64.7 65.8,68.6 65.8,73.2 C65.8,80.5 63,86.3 57.3,90.6 C51.6,95 44.1,97.2 34.6,97.2 C28.4,97.2 22.7,96 17.4,93.7 C12.1,91.4 8,88.1 5.1,84 C2.2,79.9 0.8,75.2 0.8,70 L12.7,70 C12.7,75.4 14.7,79.7 18.7,82.8 C22.7,85.9 28,87.5 34.7,87.5 C40.9,87.5 45.7,86.2 49,83.7 C52.3,81.2 54,77.7 54,73.3 C54,68.9 52.5,65.5 49.4,63.1 C46.3,60.7 40.5,58.4 32.5,56 L32.5,56 L32.5,56 Z" id="Shape"></path>
                        <path d="M120.1,89.4 C115.7,94.6 109.2,97.2 100.6,97.2 C93.5,97.2 88.1,95.1 84.4,91 C80.7,86.9 78.8,80.8 78.8,72.7 L78.8,29.4 L90.2,29.4 L90.2,72.4 C90.2,82.5 94.3,87.5 102.5,87.5 C111.2,87.5 117,84.3 119.8,77.8 L119.8,29.4 L131.2,29.4 L131.2,96 L120.4,96 L120.1,89.4 L120.1,89.4 L120.1,89.4 Z" id="Shape"></path>
                        <path d="M159.2,29.4 L159.5,36.8 C164.4,31.1 171,28.2 179.2,28.2 C188.5,28.2 194.8,31.8 198.2,38.9 C200.4,35.7 203.3,33.1 206.8,31.1 C210.3,29.1 214.5,28.1 219.4,28.1 C234,28.1 241.4,35.8 241.7,51.3 L241.7,95.9 L230.3,95.9 L230.3,52 C230.3,47.2 229.2,43.7 227,41.3 C224.8,38.9 221.2,37.8 216,37.8 C211.8,37.8 208.3,39.1 205.5,41.6 C202.7,44.1 201.1,47.5 200.6,51.8 L200.6,96 L189.2,96 L189.2,52.4 C189.2,42.7 184.5,37.9 175,37.9 C167.5,37.9 162.4,41.1 159.7,47.4 L159.7,96 L148.3,96 L148.3,29.4 L159.2,29.4 L159.2,29.4 L159.2,29.4 Z" id="Shape"></path>
                        <path d="M269.6,29.4 L269.9,36.8 C274.8,31.1 281.4,28.2 289.6,28.2 C298.9,28.2 305.2,31.8 308.6,38.9 C310.8,35.7 313.7,33.1 317.2,31.1 C320.7,29.1 324.9,28.1 329.8,28.1 C344.4,28.1 351.8,35.8 352.1,51.3 L352.1,95.9 L340.7,95.9 L340.7,52 C340.7,47.2 339.6,43.7 337.4,41.3 C335.2,38.9 331.6,37.8 326.4,37.8 C322.2,37.8 318.7,39.1 315.9,41.6 C313.1,44.1 311.5,47.5 311,51.8 L311,96 L299.6,96 L299.6,52.4 C299.6,42.7 294.9,37.9 285.4,37.9 C277.9,37.9 272.8,41.1 270.1,47.4 L270.1,96 L258.7,96 L258.7,29.4 L269.6,29.4 L269.6,29.4 L269.6,29.4 Z" id="Shape"></path>
                        <path d="M397,97.2 C388,97.2 380.6,94.2 375,88.3 C369.3,82.4 366.5,74.4 366.5,64.5 L366.5,62.4 C366.5,55.8 367.8,49.9 370.3,44.7 C372.8,39.5 376.3,35.5 380.9,32.5 C385.4,29.6 390.3,28.1 395.6,28.1 C404.3,28.1 411,31 415.8,36.7 C420.6,42.4 423,50.6 423,61.2 L423,65.9 L377.9,65.9 C378.1,72.5 380,77.8 383.7,81.8 C387.4,85.8 392,87.9 397.7,87.9 C401.7,87.9 405.1,87.1 407.9,85.4 C410.7,83.8 413.1,81.6 415.2,78.9 L422.2,84.3 C416.5,92.9 408.1,97.2 397,97.2 L397,97.2 L397,97.2 Z M395.6,37.5 C391,37.5 387.2,39.2 384,42.5 C380.9,45.8 379,50.5 378.2,56.6 L411.5,56.6 L411.5,55.7 C411.2,49.9 409.6,45.4 406.8,42.3 C404.1,39.1 400.3,37.5 395.6,37.5 L395.6,37.5 L395.6,37.5 Z" id="Shape"></path>
                        <path d="M468.3,39.6 C466.6,39.3 464.7,39.2 462.7,39.2 C455.2,39.2 450.2,42.4 447.5,48.7 L447.5,95.9 L436.1,95.9 L436.1,29.3 L447.2,29.3 L447.4,37 C451.1,31.1 456.4,28.1 463.3,28.1 C465.5,28.1 467.2,28.4 468.3,29 L468.3,39.6 L468.3,39.6 L468.3,39.6 Z" id="Shape"></path>
                        <path d="M506.9,62 C506.9,55.5 508.2,49.6 510.7,44.4 C513.3,39.2 516.8,35.2 521.4,32.3 C526,29.4 531.2,28.1 537.1,28.1 C546.2,28.1 553.5,31.2 559.1,37.5 C564.7,43.8 567.5,52.1 567.5,62.5 L567.5,63.3 C567.5,69.8 566.3,75.6 563.8,80.7 C561.3,85.8 557.8,89.9 553.2,92.7 C548.6,95.6 543.3,97 537.3,97 C528.3,97 521,93.9 515.4,87.6 C509.8,81.3 507,73 507,62.7 L507,62 L506.9,62 L506.9,62 Z M518.4,63.4 C518.4,70.8 520.1,76.7 523.5,81.2 C526.9,85.7 531.5,87.9 537.3,87.9 C543.1,87.9 547.7,85.6 551.1,81.1 C554.5,76.6 556.2,70.2 556.2,62.1 C556.2,54.8 554.5,48.9 551,44.4 C547.5,39.9 542.9,37.6 537.2,37.6 C531.6,37.6 527,39.8 523.6,44.3 C520.1,48.7 518.4,55.1 518.4,63.4 L518.4,63.4 L518.4,63.4 Z" id="Shape"></path>
                        <path d="M587.4,95.9 L587.4,38.1 L576.9,38.1 L576.9,29.3 L587.4,29.3 L587.4,22.5 C587.4,15.4 589.3,9.8 593.1,6 C596.9,2.1 602.3,0.2 609.3,0.2 C611.9,0.2 614.5,0.5 617.1,1.2 L616.5,10.4 C614.6,10 612.5,9.8 610.3,9.8 C606.6,9.8 603.8,10.9 601.7,13 C599.6,15.1 598.7,18.3 598.7,22.3 L598.7,29.3 L612.9,29.3 L612.9,38.1 L598.7,38.1 L598.7,95.9 L587.4,95.9 L587.4,95.9 L587.4,95.9 Z" id="Shape"></path>
                        <path d="M724.4,67.5 C723.3,77 719.8,84.3 713.9,89.4 C708,94.5 700.2,97.1 690.4,97.1 C679.8,97.1 671.3,93.3 665,85.7 C658.6,78.1 655.4,68 655.4,55.2 L655.4,46.6 C655.4,38.3 656.9,31 659.9,24.6 C662.9,18.3 667.1,13.4 672.5,10 C677.9,6.6 684.3,4.9 691.4,4.9 C700.9,4.9 708.5,7.6 714.3,12.9 C720,18.2 723.4,25.6 724.3,35 L712.4,35 C711.4,27.8 709.1,22.7 705.7,19.4 C702.3,16.1 697.5,14.6 691.3,14.6 C683.8,14.6 677.8,17.4 673.6,23 C669.4,28.6 667.2,36.5 667.2,46.8 L667.2,55.5 C667.2,65.2 669.2,73 673.3,78.7 C677.4,84.4 683,87.3 690.3,87.3 C696.9,87.3 701.9,85.8 705.4,82.8 C708.9,79.8 711.2,74.6 712.4,67.3 L724.4,67.3 L724.4,67.5 L724.4,67.5 Z" id="Shape"></path>
                        <path d="M735.7,62 C735.7,55.5 737,49.6 739.5,44.4 C742.1,39.2 745.6,35.2 750.2,32.3 C754.8,29.4 760,28.1 765.9,28.1 C775,28.1 782.3,31.2 787.9,37.5 C793.5,43.8 796.3,52.1 796.3,62.5 L796.3,63.3 C796.3,69.8 795.1,75.6 792.6,80.7 C790.1,85.8 786.6,89.9 782,92.7 C777.4,95.6 772.1,97 766.1,97 C757.1,97 749.8,93.9 744.2,87.6 C738.6,81.3 735.8,73 735.8,62.7 L735.8,62 L735.7,62 L735.7,62 Z M747.2,63.4 C747.2,70.8 748.9,76.7 752.3,81.2 C755.7,85.7 760.3,87.9 766.1,87.9 C771.9,87.9 776.5,85.6 779.9,81.1 C783.3,76.6 785,70.2 785,62.1 C785,54.8 783.3,48.9 779.8,44.4 C776.3,39.9 771.7,37.6 766,37.6 C760.4,37.6 755.8,39.8 752.4,44.3 C748.9,48.7 747.2,55.1 747.2,63.4 L747.2,63.4 L747.2,63.4 Z" id="Shape"></path>
                        <path d="M807.8,62.1 C807.8,51.9 810.2,43.7 815.1,37.5 C820,31.3 826.3,28.2 834.1,28.2 C841.9,28.2 848.1,30.9 852.6,36.2 L852.6,1.5 L864,1.5 L864,96 L853.5,96 L852.9,88.9 C848.3,94.5 842,97.3 833.9,97.3 C826.2,97.3 819.9,94.1 815,87.8 C810.1,81.5 807.7,73.2 807.7,63.1 L807.7,62.1 L807.8,62.1 L807.8,62.1 Z M819.2,63.4 C819.2,70.9 820.8,76.9 823.9,81.1 C827,85.4 831.3,87.5 836.8,87.5 C844,87.5 849.3,84.3 852.6,77.8 L852.6,47.2 C849.2,40.9 844,37.8 836.9,37.8 C831.3,37.8 827,40 823.9,44.3 C820.8,48.6 819.2,54.9 819.2,63.4 L819.2,63.4 L819.2,63.4 Z" id="Shape"></path>
                        <path d="M909.3,97.2 C900.3,97.2 892.9,94.2 887.3,88.3 C881.6,82.4 878.8,74.4 878.8,64.5 L878.8,62.4 C878.8,55.8 880.1,49.9 882.6,44.7 C885.1,39.5 888.6,35.5 893.2,32.5 C897.7,29.6 902.6,28.1 907.9,28.1 C916.6,28.1 923.3,31 928.1,36.7 C932.9,42.4 935.3,50.6 935.3,61.2 L935.3,65.9 L890.2,65.9 C890.4,72.5 892.3,77.8 896,81.8 C899.7,85.8 904.3,87.9 910,87.9 C914,87.9 917.4,87.1 920.2,85.4 C923,83.8 925.4,81.6 927.5,78.9 L934.5,84.3 C928.8,92.9 920.5,97.2 909.3,97.2 L909.3,97.2 L909.3,97.2 Z M907.9,37.5 C903.3,37.5 899.5,39.2 896.3,42.5 C893.2,45.8 891.3,50.5 890.5,56.6 L923.8,56.6 L923.8,55.7 C923.5,49.9 921.9,45.4 919.1,42.3 C916.4,39.1 912.6,37.5 907.9,37.5 L907.9,37.5 L907.9,37.5 Z" id="Shape"></path>
                    </g>
                    <g id="Group" transform="translate(1406.000000, 627.000000)" fill="#757575">
                        <path d="M60,90.8 L1.8,90.8 L1.8,82.7 L32.6,48.5 C37.2,43.3 40.3,39.1 42,35.9 C43.7,32.7 44.6,29.3 44.6,25.9 C44.6,21.3 43.2,17.5 40.4,14.5 C37.6,11.5 33.8,10 29.2,10 C23.6,10 19.2,11.6 16.1,14.8 C13,18 11.4,22.4 11.4,28.1 L0.1,28.1 C0.1,19.9 2.7,13.3 8,8.3 C13.3,3.3 20.3,0.7 29.1,0.7 C37.4,0.7 43.9,2.9 48.7,7.2 C53.5,11.5 55.9,17.3 55.9,24.5 C55.9,33.2 50.3,43.7 39.2,55.7 L15.4,81.5 L60,81.5 L60,90.8 L60,90.8 L60,90.8 Z" id="Shape"></path>
                        <path d="M127.7,52.9 C127.7,66.1 125.4,76 120.9,82.4 C116.4,88.8 109.3,92 99.7,92 C90.2,92 83.2,88.9 78.6,82.6 C74,76.3 71.7,66.9 71.5,54.4 L71.5,39.3 C71.5,26.2 73.8,16.5 78.3,10.2 C82.8,3.9 89.9,0.7 99.5,0.7 C109.1,0.7 116.1,3.8 120.6,9.9 C125.1,16 127.4,25.5 127.6,38.3 L127.6,52.9 L127.7,52.9 L127.7,52.9 Z M116.4,37.5 C116.4,27.9 115.1,21 112.4,16.6 C109.7,12.2 105.5,10 99.6,10 C93.8,10 89.6,12.2 87,16.5 C84.4,20.9 83,27.5 82.9,36.6 L82.9,54.7 C82.9,64.3 84.3,71.4 87.1,76 C89.9,80.6 94.1,82.9 99.8,82.9 C105.4,82.9 109.5,80.7 112.2,76.4 C114.9,72.1 116.3,65.3 116.4,56 L116.4,37.5 L116.4,37.5 L116.4,37.5 Z" id="Shape"></path>
                        <polygon id="Shape" points="179.3 90.8 167.9 90.8 167.9 15.5 145.1 23.9 145.1 13.6 177.4 1.5 179.2 1.5 179.2 90.8"></polygon>
                        <path d="M256.6,1.9 L256.6,11.5 L254.5,11.5 C245.7,11.7 238.7,14.3 233.5,19.3 C228.3,24.3 225.3,31.4 224.5,40.6 C229.2,35.2 235.6,32.5 243.7,32.5 C251.4,32.5 257.6,35.2 262.2,40.7 C266.8,46.2 269.1,53.2 269.1,61.8 C269.1,71 266.6,78.3 261.6,83.8 C256.6,89.3 249.9,92 241.5,92 C233,92 226.1,88.7 220.8,82.2 C215.5,75.7 212.9,67.3 212.9,57 L212.9,52.7 C212.9,36.3 216.4,23.8 223.4,15.2 C230.4,6.6 240.8,2.1 254.6,1.9 L256.6,1.9 L256.6,1.9 L256.6,1.9 Z M241.8,41.9 C237.9,41.9 234.4,43.1 231.1,45.4 C227.8,47.7 225.6,50.6 224.3,54.1 L224.3,58.3 C224.3,65.6 225.9,71.5 229.2,76 C232.5,80.5 236.6,82.7 241.5,82.7 C246.6,82.7 250.6,80.8 253.5,77.1 C256.4,73.4 257.9,68.5 257.9,62.4 C257.9,56.3 256.4,51.4 253.5,47.6 C250.6,43.8 246.7,41.9 241.8,41.9 L241.8,41.9 L241.8,41.9 Z" id="Shape"></path>
                    </g>
                    <g id="Google" transform="translate(0.000000, 626.000000)" fill="#757575">
                        <path d="M64.1293945,4.90283203 C73.0405719,9.58221741 78.4929913,17.7811914 80.4868164,29.5 L68.4628906,29.5 C66.9980396,22.9488605 63.9666571,18.1779935 59.3686523,15.1872559 C54.7706476,12.1965182 48.9723657,10.7011719 41.9736328,10.7011719 C33.6728101,10.7011719 26.6843546,13.8139337 21.0080566,20.0395508 C15.3317587,26.2651678 12.4936523,35.5424188 12.4936523,47.871582 C12.4936523,58.5324426 14.8333099,67.2095206 19.5126953,73.9030762 C24.1920807,80.5966318 31.8213989,83.9433594 42.4008789,83.9433594 C50.4982501,83.9433594 57.2018777,81.5935294 62.5119629,76.8937988 C67.822048,72.1940683 70.5380853,64.5952673 70.6601562,54.097168 L42.5839844,54.097168 L42.5839844,44.0263672 L81.9516602,44.0263672 L81.9516602,92 L74.1391602,92 L71.2094727,80.4643555 C67.0997516,84.9809796 63.4580237,88.1140863 60.2841797,89.8637695 C54.9537494,92.8748523 48.1789148,94.3803711 39.9594727,94.3803711 C29.3393024,94.3803711 20.2044653,90.9420917 12.5546875,84.0654297 C4.21317444,75.4390845 0.0424804688,63.5983826 0.0424804688,48.5429688 C0.0424804688,33.5282452 4.1114502,21.5858191 12.2495117,12.715332 C19.9806702,4.25174805 29.9903357,0.0200195312 42.2788086,0.0200195312 C50.7017023,0.0200195312 57.9851581,1.64760742 64.1293945,4.90283203 L64.1293945,4.90283203 Z M140.209717,76.6496582 C142.915622,71.1361215 144.268555,65.0021497 144.268555,58.2475586 C144.268555,52.1440125 143.292002,47.1798694 141.338867,43.3549805 C138.246404,37.3328149 132.916053,34.3217773 125.347656,34.3217773 C118.633755,34.3217773 113.750992,36.8852283 110.699219,42.012207 C107.647446,47.1391858 106.121582,53.3240198 106.121582,60.5668945 C106.121582,67.5249371 107.647446,73.323219 110.699219,77.9619141 C113.750992,82.6006091 118.593066,84.9199219 125.225586,84.9199219 C132.509151,84.9199219 137.503811,82.1631949 140.209717,76.6496582 L140.209717,76.6496582 Z M147.015137,33.1621094 C152.833851,38.7773718 155.743164,47.0373804 155.743164,57.9423828 C155.743164,68.4811725 153.179713,77.1887677 148.052734,84.0654297 C142.925756,90.9420917 134.97092,94.3803711 124.187988,94.3803711 C115.19543,94.3803711 108.054388,91.3388162 102.764648,85.2556152 C97.4749084,79.1724142 94.8300781,71.0039575 94.8300781,60.75 C94.8300781,49.7636169 97.6173224,41.015332 103.191895,34.5048828 C108.766467,27.9944336 116.253371,24.7392578 125.652832,24.7392578 C134.075726,24.7392578 141.196423,27.5468469 147.015137,33.1621094 L147.015137,33.1621094 Z M209.72876,76.6496582 C212.434665,71.1361215 213.787598,65.0021497 213.787598,58.2475586 C213.787598,52.1440125 212.811045,47.1798694 210.85791,43.3549805 C207.765447,37.3328149 202.435096,34.3217773 194.866699,34.3217773 C188.152798,34.3217773 183.270035,36.8852283 180.218262,42.012207 C177.166489,47.1391858 175.640625,53.3240198 175.640625,60.5668945 C175.640625,67.5249371 177.166489,73.323219 180.218262,77.9619141 C183.270035,82.6006091 188.112109,84.9199219 194.744629,84.9199219 C202.028194,84.9199219 207.022854,82.1631949 209.72876,76.6496582 L209.72876,76.6496582 Z M216.53418,33.1621094 C222.352894,38.7773718 225.262207,47.0373804 225.262207,57.9423828 C225.262207,68.4811725 222.698756,77.1887677 217.571777,84.0654297 C212.444799,90.9420917 204.489963,94.3803711 193.707031,94.3803711 C184.714473,94.3803711 177.573431,91.3388162 172.283691,85.2556152 C166.993951,79.1724142 164.349121,71.0039575 164.349121,60.75 C164.349121,49.7636169 167.136365,41.015332 172.710938,34.5048828 C178.28551,27.9944336 185.772414,24.7392578 195.171875,24.7392578 C203.594769,24.7392578 210.715466,27.5468469 216.53418,33.1621094 L216.53418,33.1621094 Z M274.822754,29.2558594 C276.89796,30.6800201 279.013824,32.7551947 281.17041,35.4814453 L281.17041,27.2416992 L291.302246,27.2416992 L291.302246,86.6899414 C291.302246,94.9907642 290.081555,101.541805 287.640137,106.343262 C283.082822,115.213749 274.476951,119.648926 261.822266,119.648926 C254.782842,119.648926 248.862491,118.0722 244.061035,114.918701 C239.259579,111.765202 236.574059,106.831577 236.004395,100.117676 L247.173828,100.117676 C247.702802,103.047378 248.760734,105.305656 250.347656,106.892578 C252.829765,109.333997 256.735976,110.554688 262.066406,110.554688 C270.4893,110.554688 276.002754,107.58434 278.606934,101.643555 C280.153165,98.1441882 280.865235,91.8983197 280.743164,82.9057617 C278.545887,86.2423669 275.901057,88.7244385 272.808594,90.3520508 C269.71613,91.9796631 265.626816,92.793457 260.540527,92.793457 C253.460414,92.793457 247.265407,90.2808682 241.955322,85.2556152 C236.645237,80.2303622 233.990234,71.9194916 233.990234,60.3227539 C233.990234,49.3770612 236.665582,40.8322247 242.016357,34.6879883 C247.367133,28.5437518 253.826622,25.4716797 261.39502,25.4716797 C266.521998,25.4716797 270.997865,26.7330603 274.822754,29.2558594 L274.822754,29.2558594 Z M276.165527,41.0356445 C272.828922,37.129375 268.576849,35.1762695 263.40918,35.1762695 C255.678021,35.1762695 250.388361,38.7976526 247.540039,46.0405273 C246.034498,49.9061066 245.281738,54.9719739 245.281738,61.2382812 C245.281738,68.6032269 246.777085,74.2082327 249.767822,78.0534668 C252.75856,81.8987009 256.776667,83.8212891 261.822266,83.8212891 C269.716185,83.8212891 275.270329,80.2609406 278.484863,73.1401367 C280.275237,69.1117963 281.17041,64.4121362 281.17041,59.0410156 C281.17041,50.9436444 279.502133,44.9419141 276.165527,41.0356445 L276.165527,41.0356445 Z M308.147949,2.33935547 L319.134277,2.33935547 L319.134277,92 L308.147949,92 L308.147949,2.33935547 Z M376.324219,28.4318848 C380.678082,30.6088162 383.994292,33.4265778 386.272949,36.8852539 C388.470226,40.1811688 389.935055,44.0263452 390.66748,48.4208984 C391.318525,51.4319812 391.644043,56.2333655 391.644043,62.8251953 L343.731445,62.8251953 C343.934897,69.4577155 345.50145,74.7778934 348.431152,78.7858887 C351.360854,82.793884 355.897756,84.7978516 362.041992,84.7978516 C367.779326,84.7978516 372.356917,82.9057806 375.774902,79.121582 C377.728037,76.9243054 379.111487,74.3811993 379.925293,71.4921875 L390.728516,71.4921875 C390.443683,73.8929156 389.497648,76.5682632 387.890381,79.5183105 C386.283114,82.4683578 384.482595,84.8792224 382.48877,86.7509766 C379.152164,90.0062012 375.02216,92.2034448 370.098633,93.3427734 C367.453763,93.9938184 364.46307,94.3193359 361.126465,94.3193359 C352.988403,94.3193359 346.0915,91.3591605 340.435547,85.4387207 C334.779594,79.5182809 331.95166,71.2277551 331.95166,60.5668945 C331.95166,50.0687952 334.799939,41.5443036 340.496582,34.9931641 C346.193225,28.4420245 353.63944,25.1665039 362.835449,25.1665039 C367.474144,25.1665039 371.970356,26.2549533 376.324219,28.4318848 L376.324219,28.4318848 Z M380.352539,54.097168 C379.904946,49.336402 378.867358,45.5319153 377.239746,42.6835938 C374.228663,37.3938538 369.203486,34.7490234 362.164062,34.7490234 C357.118464,34.7490234 352.886736,36.5698874 349.46875,40.2116699 C346.050764,43.8534525 344.240073,48.4819055 344.036621,54.097168 L380.352539,54.097168 Z"></path>
                    </g>
                </g>
            </g>
        </g>
    </g>
</svg>